<svg xmlns="http://www.w3.org/2000/svg">  

<symbol id="classroom" viewBox="0 0 512.001 512.001">
        <path d="M186.932 56.05a8.03 8.03 0 0 0 0 16.06H253.1a50 50 0 0 1 7.076-16.06h-73.254zM487.727 0H143.362c-6.097 0-11.042 4.943-11.042 11.042v230.754c0 6.098 4.943 11.042 11.042 11.042h57.443l.112-22.083h-46.512V22.083h322.28v208.672h-114.3v22.083h125.35c6.098 0 11.042-4.943 11.042-11.042V11.042c0-6.1-4.944-11.042-11.04-11.042zM301.93 48.796c-19.437 0-35.194 15.757-35.194 35.194a35.11 35.11 0 0 0 10.897 25.447h48.593C332.935 103.03 337.122 94 337.122 84c.001-19.437-15.756-35.194-35.193-35.194zm155.708 29.04a16.88 16.88 0 0 0-6.846-3.92l-3.764-17.923a10.04 10.04 0 0 0-11.886-7.76c-4.038.848-6.992 4.015-7.77 7.816h-83.7c3.243 4.83 5.66 10.25 7.076 16.06h79.15l1.784 8.495-34.533 36.62-62.176 7.27H256.5c-21.954 0-40.073 17.858-40.184 39.983L215.687 288c-.06 11.935 8.454 18.265 16.9 18.307h.087c9.335-.001 16.928-7.547 16.975-16.896l.627-124.753c.052-1.945 1.658-3.486 3.602-3.46s3.505 1.6 3.505 3.556l-.37 257.017a56.3 56.3 0 0 1 20.245-4.7v-4.024a51.62 51.62 0 0 1-5.342-22.916c0-19.137 10.407-35.878 25.852-44.893v-58.002h8.8v53.913a51.72 51.72 0 0 1 17.306-2.975 51.63 51.63 0 0 1 23.45 5.615l-.065-186.53 59.988-7.013a16.98 16.98 0 0 0 10.382-5.216l40.724-43.183c6.436-6.823 6.12-17.57-.703-24.005zm-51.058 395.75c-.106-21.358-17.6-38.625-38.82-38.625H279.7c-21.3 0-38.714 17.328-38.82 38.626L240.676 512h14.487c0-22.3 18.217-40.124 40.124-40.124h58.302c22.066 0 40.122 17.974 40.122 40.124h13.062l-.194-38.416zm-82.718-117.46c-18.775 0-33.998 15.22-33.998 33.998 0 18.796 15.272 33.998 33.998 33.998 18.662 0 33.998-15.117 33.998-33.998.001-18.777-15.22-33.998-33.998-33.998zm-227.72 0c-18.734 0-33.998 15.175-33.998 33.998-.001 18.887 15.347 33.998 33.998 33.998 18.732 0 33.998-15.208 33.998-33.998.001-18.777-15.22-33.998-33.998-33.998zM353.6 483.33h-58.302c-15.834 0-28.67 12.835-28.67 28.67H382.26c0-15.834-12.836-28.67-28.67-28.67zm-230.36 0h-58.3c-15.834 0-28.67 12.835-28.67 28.67H151.9c0-15.834-12.836-28.67-28.67-28.67zm87.846-164.795c-7.815-1.775-15.585 3.126-17.356 10.938l-17.192 75.796-40.586 29.7H52.247c-21.2 0-38.713 17.24-38.82 38.626L13.233 512h11.573c0-22.15 18.052-40.124 40.124-40.124h58.302a39.86 39.86 0 0 1 20.446 5.62l.228-12.414 54.136-39.6a14.5 14.5 0 0 0 5.582-8.5l18.392-81.1a14.51 14.51 0 0 0-10.94-17.357z"/>
    </symbol> 
    <symbol id="about-us" viewBox="0 0 512 512">
        <path d="M255.32 193.293c23.312 0 42.278-18.977 42.278-42.303 0-23.313-18.966-42.277-42.278-42.277-23.32 0-42.3 18.965-42.3 42.277 0 23.326 18.972 42.303 42.3 42.303zm-49.996-102.4c18.725 0 33.958-15.24 33.958-33.97 0-18.72-15.233-33.947-33.958-33.947-18.718 0-33.946 15.23-33.946 33.947 0 18.73 15.228 33.97 33.946 33.97zM369.98 183.44c23.32 0 42.3-18.967 42.3-42.277 0-23.326-18.972-42.305-42.3-42.305s-42.278 18.98-42.278 42.305c0 23.3 18.966 42.277 42.278 42.277zm-227.974 0c23.313 0 42.28-18.967 42.28-42.277 0-23.326-18.966-42.305-42.28-42.305s-42.278 18.98-42.278 42.305c.001 23.3 18.966 42.277 42.278 42.277zm163.31-92.557c18.718 0 33.945-15.24 33.945-33.97 0-18.72-15.228-33.947-33.945-33.947-18.725 0-33.958 15.23-33.958 33.947 0 18.73 15.234 33.97 33.958 33.97zm-4.77 277.817c10.652-.938 16.937-6.607 20.23-18.22 0-.012-.003-.02-.003-.033V262.6c-.015-.055-.04-.104-.053-.158-6.724-30.115-38.913-44.127-65.978-44.4-20.38-.176-45.505 7.486-58.404 28.512a4 4 0 0 1-1.505 2.625c-2.084 3.88-3.773 8.174-4.97 12.92v87.906a4 4 0 0 1 .265.68c3.245 11.672 9.44 17.426 19.95 18.47v-52.85h8v168.082h33.24v-107.5h8v107.5h33.226V315.945h8V368.7zm68.997-161.075c-21.528 1.764-44.083 14.414-45.944 38.697-.015.2-.06.37-.1.553 2.06 3.957 3.63 8.154 4.716 12.55.347.594.56 1.273.56 2v89.014c0 .236-.03.465-.07.7.01.4-.016.783-.125 1.178-4.26 15.4-13.445 23.37-28.034 24.404v97.805h65.435v-107.5h8v107.5h33.214V306.44h8v52.854c10.534-1.035 16.735-6.787 19.976-18.47a3.87 3.87 0 0 1 .266-.684v-87.955c-8.533-33.802-39.176-46.75-65.896-44.56zm-187.12 145.2c-.05-.178-.068-.355-.092-.535a3.95 3.95 0 0 1-.465-1.834v-89.014c0-.008.002-.014.002-.02a3.98 3.98 0 0 1 .288-1.457c1.395-5.46 3.434-10.572 6.06-15.28-2.735-23.207-24.74-35.328-45.776-37.05-26.716-2.2-57.38 10.77-65.888 44.605v87.9a3.97 3.97 0 0 1 .266.68c3.246 11.674 9.444 17.428 19.963 18.47v-52.84h8v167.758h33.226V367.014h8v107.184h64.075v-97.035c-14.356-1.145-23.422-9.108-27.66-24.347z"/>
    </symbol> 
    <symbol id="date" viewBox="0 0 60 60">
     <path d="M50.3 11c-1.6-.8-11.3-6.1-16.7-9.4a4.84 4.84 0 0 0-7.2 0C21 4.9 11.3 10.2 9.8 11H0v49h60V11h-9.7zM32.2 3c.3.3.5.7.7 1.2v.1c.1.3.1.5.1.7 0 1.7-1.3 3-3 3s-3-1.3-3-3c0-.2 0-.4.1-.6v-.1c.1-.5.4-.9.7-1.2.5-.6 1.3-1 2.2-1s1.7.3 2.2.9zM25 4.8V5a4.95 4.95 0 0 0 5 5 4.95 4.95 0 0 0 5-5v-.2c3.6 2.1 8 4.6 11.1 6.2H13.9C17 9.4 21.4 6.9 25 4.8zM10 13h48v5H2v-5h8zM2 58V20h56v38H2z"/><circle cx="23" cy="28" r="1"/><circle cx="30" cy="28" r="1"/><circle cx="37" cy="28" r="1"/><circle cx="44" cy="28" r="1"/><circle cx="51" cy="28" r="1"/><circle cx="9" cy="36" r="1"/><circle cx="16" cy="36" r="1"/><circle cx="23" cy="36" r="1"/><circle cx="30" cy="36" r="1"/><circle cx="37" cy="36" r="1"/><circle cx="44" cy="36" r="1"/><circle cx="51" cy="36" r="1"/><circle cx="9" cy="43" r="1"/><circle cx="16" cy="43" r="1"/><circle cx="23" cy="43" r="1"/><circle cx="30" cy="43" r="1"/><circle cx="37" cy="43" r="1"/><circle cx="44" cy="43" r="1"/><circle cx="51" cy="43" r="1"/><circle cx="9" cy="51" r="1"/><circle cx="16" cy="51" r="1"/><circle cx="23" cy="51" r="1"/><circle cx="30" cy="51" r="1"/><circle cx="37" cy="51" r="1"/>    </symbol>
    <symbol id="coffe" viewBox="0 0 21.664 21.665">
        <path d="M2.756 20.725h2.95c.04.257.254.458.523.458h6.707c.27 0 .482-.2.523-.458h2.95a.9.9 0 0 0 .903-.903H1.854a.9.9 0 0 0 .902.903zm18.1-9.28c-.752-.6-1.8-.62-2.508-.542l.03-1.5H0c0 4.97.752 8.556 5.5 9.894h7.366c1.885-.53 3.135-1.418 3.964-2.6 1.806-.035 4.7-.746 4.82-3.24.047-1.092-.407-1.698-.796-2.012zM17.6 15.27c.346-.9.55-1.9.664-2.988.488-.08 1.33-.13 1.754.215.078.064.32.262.293.9-.057 1.292-1.66 1.726-2.7 1.872zM7.5 8.704s3.5-.257 1.896-3.208C8.1 3.127 8.393 1.737 10.04.48c0 0-5.398 1.375-2.25 5.63 1.155 1.854-.3 2.593-.3 2.593zm2.36-.236s2.804-.6 1.278-2.846c-.554-.978.2-1.327.2-1.327s-1.805.057-1.043 1.608c.6 1.247.43 1.955-.445 2.565z"/>
    </symbol> 
   
    <symbol id="congresses" viewBox="0 0 278.15 442.86">
      <path d="M167 143.23l-25.5 25.36 10.76 71.92h95.53C242 215.5 228 182.16 228 182.16c-2.13-5.08-7.25-8.34-12.13-10.35l-33-15.2zm-28.43 25.35L113 143.23 97.16 156.6l-33 15.2c-4.9 2-9.7 5.05-12.13 10.35 0 0-14 33.32-19.77 58.35h95.53zm.42-25.83c25.18 0 59-31.46 59.54-84.23C198.87 21.9 181.43 0 139 0S79.05 21.9 79.42 58.52c.57 52.77 30.06 84.23 59.54 84.23zm-12-69.52c30.8 3.28 57.64-39.78 57.2-1.23-.26 23.1-21.67 57.94-45.23 57.94-24.72 0-41.78-29-45.23-57.92-3.74-31.4 53.9-24.25 33.26 1.2zm150.13 186.83a11 11 0 0 0-8.16-3.6H11a11 11 0 0 0-11 11c0 .35 0 .7.05 1.06L22.1 432.9a11 11 0 0 0 11 10h213.83a11 11 0 0 0 11-10c22.34-167.46 21.32-170.53 19.23-172.83zM183.67 387c-2.12 2.85-88.2 2.85-90.33 0-4-5.42-11.93-73.64-7.9-79.06 2.12-2.85 104-2.85 106.15 0 3.23 4.35-4 73.78-7.93 79.06z"/>
    </symbol>
    <symbol id="consulting"  viewBox="0 0 99 55.729">
        <path d="M77.698 15.75h1.636a4.85 4.85 0 0 1 4.846 4.846v7.612a1.41 1.41 0 0 1-.646 1.194 1.97 1.97 0 0 0-.888 1.656v7.33c-.003.894.507 1.7 1.312 2.1a57.7 57.7 0 0 1 10.439 6.7 1.69 1.69 0 0 1 .606 1.312v5.2a2 2 0 1 0 4 0v-5.207a5.64 5.64 0 0 0-2.08-4.4 61.48 61.48 0 0 0-10.3-6.724v-5.4c.982-1.012 1.533-2.366 1.535-3.776V20.6c-.006-4.882-3.962-8.84-8.844-8.844h-1.636c-4.882.005-8.838 3.962-8.844 8.844v7.612c.002 1.4.553 2.764 1.535 3.776v2.6a2 2 0 1 0 4 0v-3.513a2 2 0 0 0-.888-1.656 1.4 1.4 0 0 1-.646-1.19v-7.612a4.87 4.87 0 0 1 4.863-4.865zM2.08 44.122a5.71 5.71 0 0 0-2.08 4.4v5.2a2 2 0 0 0 4 0v-5.2a1.72 1.72 0 0 1 .606-1.312c3.234-2.594 6.733-4.84 10.44-6.7.805-.4 1.315-1.206 1.312-2.1v-7.33a2 2 0 0 0-.888-1.656 1.4 1.4 0 0 1-.646-1.19V20.62a4.85 4.85 0 0 1 4.846-4.846h1.63a4.85 4.85 0 0 1 4.846 4.846v7.612a1.42 1.42 0 0 1-.646 1.19 1.95 1.95 0 0 0-.888 1.656v3.675a2 2 0 1 0 4 0v-2.746c.982-1.012 1.533-2.366 1.535-3.776v-7.6c-.004-4.885-3.963-8.843-8.847-8.847h-1.633c-4.882.005-8.838 3.962-8.844 8.844v7.612a5.45 5.45 0 0 0 1.535 3.776v5.4A63.74 63.74 0 0 0 2.08 44.122zM73.54 55.73a1.99 1.99 0 0 0 2-2v-6.744a6.71 6.71 0 0 0-2.463-5.23c-4.198-3.387-8.73-6.335-13.528-8.8v-7.592a6.45 6.45 0 0 0 1.98-4.644v-9.854A10.88 10.88 0 0 0 50.665 0h-2.12a10.88 10.88 0 0 0-10.863 10.863v9.854a6.44 6.44 0 0 0 1.98 4.644v7.6a79.25 79.25 0 0 0-13.528 8.8 6.72 6.72 0 0 0-2.463 5.23v6.744a2 2 0 1 0 4 0v-6.745a2.75 2.75 0 0 1 1.01-2.14 76.31 76.31 0 0 1 13.63-8.743 2.41 2.41 0 0 0 1.373-2.18v-9.5a2 2 0 0 0-.888-1.656 2.44 2.44 0 0 1-1.09-2.039v-9.854c.004-3.8 3.075-6.86 6.865-6.865h2.12c3.8.004 6.86 3.075 6.865 6.865v9.854a2.45 2.45 0 0 1-1.1 2.04c-.56.364-.894 1-.888 1.656v9.5a2.46 2.46 0 0 0 1.373 2.2 76.31 76.31 0 0 1 13.63 8.743 2.75 2.75 0 0 1 1.01 2.14v6.75a1.93 1.93 0 0 0 1.951 1.979z"/>
    </symbol>
    <symbol id="contact" viewBox="0 0 511.874 511.874">
        <path d="M490.114 12.813H132.568a21.79 21.79 0 0 0-21.76 21.76v98.62l-16.35-24.525c-7.484-11.3-22.535-14.676-34.133-7.68l-33.638 20.224a49.39 49.39 0 0 0-22.545 29.244C-8.13 195.137.976 272.116 113.966 385.123 203.82 474.885 270.816 499.06 317 499.06a119.13 119.13 0 0 0 31.66-4.13 49.44 49.44 0 0 0 29.252-22.519l20.198-33.673a25.29 25.29 0 0 0-7.68-34.091l-80.546-53.692c-11.05-7.308-25.86-4.905-34.03 5.52l-23.45 30.148c-2.45 3.226-6.897 4.166-10.445 2.2l-4.463-2.458c-14.686-8.004-32.964-17.97-69.88-54.886l-11.008-11.307h333.517c11.982.01 21.713-9.676 21.76-21.658V34.573a21.79 21.79 0 0 0-21.76-21.76zm-260.796 388.55l4.335 2.38a25.14 25.14 0 0 0 32.213-6.639l23.45-30.148c2.666-3.396 7.5-4.18 11.093-1.8l80.546 53.692a8.24 8.24 0 0 1 2.5 11.093l-20.198 33.673a32.42 32.42 0 0 1-19.123 14.848c-40.337 11.093-110.933 1.707-218.078-105.446S9.56 195.273 20.627 154.97a32.43 32.43 0 0 1 14.839-19.123L69.14 115.64c3.773-2.254 8.652-1.155 11.093 2.5l53.717 80.546c2.382 3.602 1.6 8.43-1.8 11.093l-30.157 23.458c-9.903 7.597-12.73 21.3-6.64 32.205l2.4 4.335c8.533 15.65 19.14 35.123 57.805 73.78s58.13 49.272 73.772 57.806zm265.5-102.836a4.66 4.66 0 0 1-4.693 4.608H141.203c-11.083-12.674-20.64-26.604-28.476-41.506l-2.458-4.48a8.14 8.14 0 0 1 2.202-10.428l30.157-23.458c10.43-8.17 12.833-22.982 5.52-34.03l-20.275-30.43V34.573a4.64 4.64 0 0 1 4.693-4.693h357.547a4.64 4.64 0 0 1 4.693 4.693v263.953zM460.725 52.323l-142.618 108.16a11.51 11.51 0 0 1-13.534 0L162.008 52.323a8.54 8.54 0 0 0-11.959 1.643 8.54 8.54 0 0 0 1.643 11.959l142.583 108.15c10.144 7.494 24 7.494 34.133 0l142.626-108.15a8.53 8.53 0 0 0 1.638-11.963c-2.848-3.75-8.194-4.482-11.947-1.64zm-222.208 122.47l-87.415 93.6c-3.214 3.447-3.025 8.848.422 12.062s8.848 3.025 12.062-.422l87.416-93.653c2.888-3.484 2.553-8.617-.762-11.698s-8.46-3.037-11.723.1zm146.2 0c-3.214-3.447-8.614-3.637-12.062-.422s-3.637 8.614-.422 12.062l87.4 93.6c3.214 3.447 8.614 3.637 12.062.422s3.637-8.614.422-12.062l-87.4-93.6z"/>
    </symbol>
    <symbol id="courses" viewBox="0 0 30.833 30.833">
        <path d="M18.887 5.757v9.804l-1.28-.82-1.28 1.685V6.017l-1.077.108-.313-.215 14.78-1.604-.018-.166-14.972 1.626-.26-.178 14.95-1.635-.018-.165-15.143 1.655-.287-.197 15.183-1.68-.02-.165-15.375 1.7-.32-.22 15.377-1.7-.018-.165-15.568 1.732-.348-.24.498-.05 15.82-1.72-.58-.818-17.3 1.833V11.1c-.8-.247-2.13-.523-4.154-.545-3.74-.04-5.722 2.058-6.02 2.682-.16.335-.128.695.098 1.07.3.52.634.546.975.573.324.026.7.057 1.253.488.907.696.787 1.943.715 2.37H0V22.3h8.662v-4.56H4.554c.086-.542.17-1.864-.863-2.657-.648-.498-1.1-.536-1.444-.563-.32-.025-.48-.04-.695-.397-.16-.268-.188-.506-.082-.725.214-.448 2.38-2.68 5.843-2.488 1.897.105 3.207.385 4.005.618v15.17l3.134 2.2v.02l16.377-1.662.004-22.716-11.946 1.2zM4.345 18.755c.34 0 .615.275.615.615v1.6c0 .34-.275.615-.615.615h-.03c-.34 0-.614-.275-.614-.615v-1.6c0-.34.274-.615.614-.615h.03zM0 24.7c0 2.337 1.895 4.232 4.232 4.232h.197c2.338 0 4.232-1.896 4.232-4.232v-2.148H0V24.7z"/>
    </symbol>
    <symbol id="diplomas" viewBox="0 0 40.444 39">
        <path d="M23.833 28.166a3.611 3.611 0 1 1-3.611-3.611 3.611 3.611 0 0 1 3.611 3.611zm2.227 7.46a.722.722 0 0 1 .495-.415l3.575-.854-2.593-3.1-.046.094q-.14.32-.307.625l-.145.254-.314.484-.24.325-.3.36-.345.367-.505.476c-.08.067-.155.112-.23.17l-.1.092-.217.148-.294.2-.64.37-.237.112-.6.254-.16.06a7.61 7.61 0 0 1-.838.243h-.02l2.594 3.1zm-7.193-1.106a6.574 6.574 0 0 0 1 .132h.01l.343.014.343-.014h.01a6.518 6.518 0 0 0 1.005-.132l.058-.01.387-.1.15-.044.278-.1.246-.093.173-.077.33-.158.08-.043.4-.232.01-.005q.216-.14.43-.3a4.89 4.89 0 0 0 .423-.357q.245-.218.467-.46l.173-.183a6.442 6.442 0 0 0 .549-.753l.072-.123a6.271 6.271 0 0 0 .4-.794l.032-.072a6.477 6.477 0 0 0 .307-.973c0-.012.01-.023.014-.035a6.5 6.5 0 1 0-12.676 0c0 .013.01.023.014.036a6.487 6.487 0 0 0 .307.974l.03.072a6.381 6.381 0 0 0 .4.8l.072.12a6.328 6.328 0 0 0 .55.753l.175.186a6.473 6.473 0 0 0 .462.456l.425.358a6.6 6.6 0 0 0 .852.544l.058.032.35.168.157.072.258.1.268.093.158.046.38.1zm-3.7-6.355a5.056 5.056 0 1 1 5.056 5.056 5.055 5.055 0 0 1-5.056-5.053zm-.78 7.46L15.848 39l2.594-3.1h-.007a7.879 7.879 0 0 1-.835-.242l-.17-.065q-.3-.1-.58-.247l-.25-.12-.63-.36-.314-.217-.2-.14c-.036-.026-.066-.06-.1-.086l-.236-.176c-.076-.064-.152-.145-.23-.216l-.274-.26q-.18-.18-.347-.37l-.3-.36-.24-.325q-.167-.237-.315-.485l-.147-.23a6.28 6.28 0 0 1-.308-.627c-.014-.032-.032-.06-.046-.092l-2.593 3.1 3.575.854a.721.721 0 0 1 .491.409zm26.057-8.18V0H0v27.444h12.314a7.94 7.94 0 0 1 15.817 0zm-5.056-26h2.9a.722.722 0 0 1 .723.723v2.9h-1.444V2.9H35.4zm0 23.1h2.167V22.4H39v2.9a.722.722 0 0 1-.722.722h-2.9zM11.556 6.5H28.9v1.444H11.556zM5.056 26h-2.9a.722.722 0 0 1-.722-.722v-2.9H2.9v2.167h2.167zm0-23.1H2.9v2.167H1.444v-2.9a.722.722 0 0 1 .722-.722h2.9zm2.167 9.4v-1.445h26V12.3zm0 0"/>
    </symbol>
    <symbol id="duration" viewBox="0 0 60 60">
        <path d="M54 58h-3v-4h-5V43.778a8.03 8.03 0 0 0-3.6-6.706L31.803 30l10.608-7.072C44.658 21.43 46 18.922 46 16.222V6h5V2h3a1 1 0 1 0 0-2H6a1 1 0 1 0 0 2h3v4h5v10.222a8.03 8.03 0 0 0 3.6 6.706L28.197 30 17.6 37.072c-2.248 1.498-3.6 4.006-3.6 6.706V54H9v4H6a1 1 0 1 0 0 2h48a1 1 0 1 0 0-2zM11 4V2h38v2H11zm7.698 17.264A6.05 6.05 0 0 1 16 16.222V6h28v10.222a6.05 6.05 0 0 1-2.698 5.042L30 28.798l-11.302-7.534zM16 43.778a6.05 6.05 0 0 1 2.698-5.042L30 31.202l11.302 7.534A6.05 6.05 0 0 1 44 43.778V54H16V43.778zM11 56h38v2H11v-2zm9.917-38.064c-.574-.383-.917-1.024-.917-1.714V14a1 1 0 1 0-2 0v2.222a4.05 4.05 0 0 0 1.808 3.378l4.638 3.092a1 1 0 1 0 1.11-1.664l-4.64-3.092zM40.192 41.26l-4.638-3.092a1 1 0 1 0-1.11 1.664l4.638 3.092c.575.383.918 1.023.918 1.714v2.222a1 1 0 1 0 2 0v-2.222a4.05 4.05 0 0 0-1.808-3.378z"/>
    </symbol>
    
    <symbol id="hour" viewBox="0 0 60 60">
       <path d="M30 0C13.458 0 0 13.458 0 30s13.458 30 30 30 30-13.458 30-30S46.542 0 30 0zm0 58C14.56 58 2 45.44 2 30S14.56 2 30 2s28 12.56 28 28-12.56 28-28 28zm0-52a1 1 0 0 0-1 1v23H14a1 1 0 1 0 0 2h16a1 1 0 0 0 1-1V7a1 1 0 0 0-1-1z"/>
    </symbol>
    <symbol id="inhouse"  viewBox="0 0 512 512">
       <path d="M125.614 201.836c-33.182 0-60.178 26.995-60.178 60.178s26.996 60.178 60.178 60.178 60.178-26.995 60.178-60.178-26.995-60.178-60.178-60.178zm0 90.268c-16.592 0-30.1-13.498-30.1-30.1s13.498-30.1 30.1-30.1 30.1 13.498 30.1 30.1-13.498 30.1-30.1 30.1zM267.05 217.2h60.17v30.1h-60.17zm90.25 0h60.17v30.1H357.3zm-90.25 60.18h60.17v30.1h-60.17zm90.25 0h60.17v30.1H357.3zM267.05 98.23h60.17v30.1h-60.17zm90.25 0h60.17v30.1H357.3zm-90.25 60.17h60.17v30.1h-60.17zm90.25 0h60.17v30.1H357.3zm94.287-128.26V0H230.934v30.293h-61.18v114.374c-13.737-5.184-28.6-8.03-44.14-8.03C56.482 136.638.238 192.882.238 262.015c0 28.318 18.695 74.747 57.153 141.938C84.945 452.1 112.893 493.3 113.17 493.7L125.6 512l12.44-18.3c.224-.33 18.387-27.106 39.838-62.65h333.87V30.344l-60.174-.204zM125.614 458.013c-34.842-53.693-95.3-155.3-95.3-196 0-52.543 42.746-95.3 95.3-95.3s95.3 42.746 95.3 95.3c0 40.7-60.446 142.306-95.3 196zm356.06-57.05h-124.36v-62.186h-30.087v62.186h-131.69c37.3-65.572 55.454-111.053 55.454-138.948 0-41.376-20.152-78.13-51.15-100.977V60.38h61.18V30.088H421.5v30.037l60.174.205v340.632z"/>
    </symbol>
    <symbol id="mission" viewBox="0 0 85.333 75.333">
        <path d="M84.937 71.385L67 43.142a2.72 2.72 0 0 0-4.555 0l-2.33 3.667a1.19 1.19 0 0 0 .41 1.669c.588.35 1.348.174 1.722-.4l2.33-3.667c.032-.05.086-.08.145-.08s.113.03.145.08L82.8 72.656c.035.05.035.117 0 .167-.03.055-.087.088-.15.084h-9.924L44.944 29.163c-.246-.387-.588-.703-.993-.917v-8.23a11.92 11.92 0 0 0 3.05.391 24.21 24.21 0 0 0 8.145-1.9c3.625-1.3 7.048-2.535 10.75-1.1a1.59 1.59 0 0 0 1.443-.15c.423-.272.68-.74.682-1.243v-13.7A1.5 1.5 0 0 0 67.08.931c-4.7-1.942-8.82-.46-12.806.973-3.733 1.342-7.26 2.6-11.1.948-.388-.168-.834-.134-1.192.1a1.2 1.2 0 0 0-.571 1.018v.045c-.022.092-.034.186-.034.28v23.962c-.405.214-.747.53-.992.916L27.2 49.93l-4.31-6.79a2.72 2.72 0 0 0-4.555 0L.4 71.385c-.507.795-.53 1.805-.057 2.62a2.69 2.69 0 0 0 2.334 1.327H82.66a2.69 2.69 0 0 0 2.334-1.327c.472-.816.45-1.827-.057-2.62zM43.92 5.677c4.053 1.077 7.693-.232 11.228-1.5 3.5-1.258 6.81-2.45 10.372-1.234v11.784c-4.065-1.08-7.71.23-11.244 1.5-3.492 1.256-6.8 2.446-10.357 1.235zm-28.372 67.23l4.3-6.763a1.19 1.19 0 0 0-.41-1.669c-.588-.35-1.348-.174-1.722.4l-5.1 8.034h-9.94c-.062.004-.12-.03-.15-.084-.035-.05-.035-.117 0-.167l17.94-28.244c.032-.05.086-.08.145-.08s.113.03.145.08l4.974 7.832-4.967 7.82a1.19 1.19 0 0 0 .41 1.669c.588.35 1.35.174 1.722-.4l19.626-30.9c.032-.05.086-.08.145-.08s.113.03.145.08l26.976 42.472z" fill="#f3f3f3"/>
    </symbol>
    <symbol id="money" viewBox="0 0 28.333 28.333">
        <path d="M4.708 25.175c-.187-.187-.48-.215-.698-.07s-.305.428-.204.67.36.382.62.33.445-.28.445-.542a.6.6 0 0 0-.162-.4zm21.276-15.052a.55.55 0 0 0-.899.604.55.55 0 0 0 .618.329.55.55 0 0 0 .443-.542.6.6 0 0 0-.163-.4zM28.17.162A.55.55 0 0 0 27.78 0H14.166a.55.55 0 0 0-.39.162c-.103.104-.162.244-.162.4v1.584L8.367 3.542a.55.55 0 0 0-.336.258c-.073.128-.093.278-.055.42l2.717 10.146-2.35 2.352a1.66 1.66 0 0 0-1.37-.724H1.66A1.66 1.66 0 0 0 0 17.654v9.02a1.66 1.66 0 0 0 1.66 1.66h5.312a1.66 1.66 0 0 0 1.61-1.26l.658.574a2.79 2.79 0 0 0 1.833.687h16.7a.55.55 0 0 0 .39-.162c.103-.104.162-.244.162-.4V.553a.55.55 0 0 0-.157-.39zM7.526 26.673c-.001.305-.248.552-.553.553H1.66c-.305-.001-.552-.248-.553-.553v-9.02c.001-.305.248-.552.553-.553h2.1v6.375c0 .306.248.554.553.554s.554-.248.554-.554V17.1h2.1c.305.001.552.248.553.553v9.02zM9.193 4.468l4.42-1.186v2.05l-.37.1a.55.55 0 0 0-.336.258c-.073.128-.093.278-.055.42a1.49 1.49 0 0 1-1.058 1.824.55.55 0 0 0-.39.678l2.16 7.986h-1.1l-.572-2.24a.56.56 0 0 0-.093-.194zm4.425 3.4v4.67L12.603 8.8a2.59 2.59 0 0 0 1.01-.929zm7.95 19.356H11.074a1.68 1.68 0 0 1-1.105-.414l-1.336-1.163v-7.654l2.416-2.416.438 1.714c.063.245.283.416.536.416h10.88c.417.015.747.357.747.775s-.33.76-.747.774h-5.575c-.306 0-.553.248-.553.554s.248.554.553.554h7.307c.417.015.747.357.747.775s-.33.76-.747.774h-7.307c-.306 0-.553.248-.553.554s.248.554.553.554h6.123c.283-.01.55.135.694.38s.145.547 0 .8-.4.4-.694.38h-6.123c-.306 0-.553.248-.553.553s.248.554.553.554h4.235c.283-.01.55.135.694.38s.145.547 0 .8-.4.4-.694.38zm5.663 0h-3.954a1.88 1.88 0 0 0 0-1.55h.174a1.88 1.88 0 0 0 1.682-2.724 1.88 1.88 0 0 0 1.012-2.935V13c0-.306-.248-.554-.553-.554s-.554.248-.554.554v6.3a1.88 1.88 0 0 0-.4-.044h-.018a1.88 1.88 0 0 0-1.718-2.656h-.9a2.65 2.65 0 1 0-2.081 0h-3.024V6.08a2.6 2.6 0 0 0 1.986-1.98h4.163a2.6 2.6 0 0 0 1.982 1.98V7.8c0 .306.248.554.554.554s.553-.248.553-.554V5.586a.55.55 0 0 0-.162-.39c-.104-.103-.244-.162-.4-.162a1.49 1.49 0 0 1-1.49-1.49.55.55 0 0 0-.162-.39C23.827 3.05 23.696 3 23.55 3h-5.156c-.305 0-.553.248-.553.553a1.49 1.49 0 0 1-1.49 1.49.55.55 0 0 0-.39.162c-.103.104-.162.244-.162.4V16.6h-1.08V1.107h12.506zm-6.258-11.516a1.54 1.54 0 1 1 1.542-1.542c-.001.85-.7 1.54-1.542 1.542z"/>
    </symbol>
    <symbol id="searching" viewBox="0 0 446.25 446.25">
        <path d="M318.75 280.5h-20.4l-7.65-7.65c25.5-28.05 40.8-66.3 40.8-107.1C331.5 73.95 257.55 0 165.75 0S0 73.95 0 165.75 73.95 331.5 165.75 331.5c40.8 0 79.05-15.3 107.1-40.8l7.65 7.65v20.4L408 446.25 446.25 408l-127.5-127.5zm-153 0C102 280.5 51 229.5 51 165.75S102 51 165.75 51 280.5 102 280.5 165.75s-51 114.75-114.75 114.75z"/>
    </symbol>
    <symbol id="slick-next" viewBox="0 0 16.257 24.879">
        <path d="M2.073 2.468c.85.394 11.76 9.768 11.76 9.768L2.786 22.803" fill="none" stroke="#666" stroke-linecap="round" stroke-linejoin="round" stroke-width="3.998"/>
    </symbol>
    <symbol id="slick-prev" viewBox="0 0 15.416 24.356">
        <path d="M13.416 22.356C12.58 21.932 2 12.178 2 12.178L13.416 2" fill="none" stroke="#666" stroke-linecap="round" stroke-linejoin="round" stroke-width="4"/>
    </symbol>
    </svg>