<svg xmlns="http://www.w3.org/2000/svg">  
     <symbol id="congress" viewBox="0 0 24 24">
         <path d="M16.25 24h-8.5a.75.75 0 0 1-.741-.636l-1-6.5A.75.75 0 0 1 6.75 16h10.5a.75.75 0 0 1 .569.262c.142.166.205.386.172.603l-1 6.5a.75.75 0 0 1-.741.635z"/><circle cx="12" cy="4" r="4"/><path d="M23.217 13a7.27 7.27 0 0 0-3.218-5.51A1.5 1.5 0 0 0 18.5 6a1.5 1.5 0 1 0 0 3c.274 0 .527-.08.748-.207 1.407.97 2.316 2.522 2.47 4.207H19.94c-.36-2.26-2.32-4-4.7-4h-6.5c-2.37 0-4.33 1.74-4.7 4H.75c-.53 0-.874.538-.7 1l2 5.5a.76.76 0 0 0 .71.49h1.72l-.44-2.83a2.76 2.76 0 0 1 .63-2.21c.446-.535 1.235-.96 2.1-.96h10.5a2.77 2.77 0 0 1 2.09.96 2.76 2.76 0 0 1 .63 2.21L19.53 20h1.72a.76.76 0 0 0 .71-.49l2-5.5a.76.76 0 0 0-.743-1.01z"/>
      </symbol>  
    <symbol id="location"  viewBox="0 0 512 512"> 
        <path d="M256 0C150.125 0 64 86.135 64 192c0 141.646 177.146 310 184.688 317.104C250.75 511.03 253.375 512 256 512a10.69 10.69 0 0 0 7.313-2.896C270.854 502 448 333.646 448 192 448 86.135 361.875 0 256 0zm0 298.667c-58.813 0-106.667-47.854-106.667-106.667S197.188 85.333 256 85.333 362.667 133.188 362.667 192 314.813 298.667 256 298.667z"/> 
     </symbol>
    <symbol id="calendar" viewBox="0 0 512 512">
      <circle cx="386" cy="210" r="20"/><path d="M432 40h-26V20c0-11.046-8.954-20-20-20s-20 8.954-20 20v20h-91V20c0-11.046-8.954-20-20-20s-20 8.954-20 20v20h-90V20c0-11.046-8.954-20-20-20s-20 8.954-20 20v20H80C35.888 40 0 75.888 0 120v312c0 44.112 35.888 80 80 80h153c11.046 0 20-8.954 20-20s-8.954-20-20-20H80c-22.056 0-40-17.944-40-40V120c0-22.056 17.944-40 40-40h25v20c0 11.046 8.954 20 20 20s20-8.954 20-20V80h90v20c0 11.046 8.954 20 20 20s20-8.954 20-20V80h91v20c0 11.046 8.954 20 20 20s20-8.954 20-20V80h26c22.056 0 40 17.944 40 40v114c0 11.046 8.954 20 20 20s20-8.954 20-20V120c0-44.112-35.888-80-80-80zm-41 230c-66.72 0-121 54.28-121 121s54.28 121 121 121 121-54.28 121-121-54.28-121-121-121zm0 202c-44.663 0-81-36.336-81-81s36.337-81 81-81 81 36.336 81 81-36.337 81-81 81zm29-101h-9v-21c0-11.046-8.954-20-20-20s-20 8.954-20 20v41c0 11.046 8.954 20 20 20h29c11.046 0 20-8.954 20-20s-8.954-20-20-20z"/><circle cx="299" cy="210" r="20"/><circle cx="212" cy="297" r="20"/><circle cx="125" cy="210" r="20"/><circle cx="125" cy="297" r="20"/><circle cx="125" cy="384" r="20"/><circle cx="212" cy="384" r="20"/><circle cx="212" cy="210" r="20"/>
   </symbol>  
    <symbol id="certificado" viewBox="0 0 45 36">
<path fill-rule="evenodd" clip-rule="evenodd" d="M40 3.5H5C4.17157 3.5 3.5 4.17157 3.5 5V31C3.5 31.8284 4.17157 32.5 5 32.5H40C40.8284 32.5 41.5 31.8284 41.5 31V5C41.5 4.17157 40.8284 3.5 40 3.5ZM45 5C45 2.23858 42.7614 0 40 0H5C2.23857 0 0 2.23858 0 5V31C0 33.7614 2.23857 36 5 36H40C42.7614 36 45 33.7614 45 31V5ZM26.9892 8.35482C25.6672 7.47148 24.113 7 22.523 7C20.3917 7.00238 18.3483 7.85011 16.8412 9.3572C15.3341 10.8643 14.4864 12.9077 14.484 15.039C14.484 16.629 14.9555 18.1832 15.8388 19.5052C16.7222 20.8272 17.9777 21.8576 19.4466 22.4661C20.9155 23.0745 22.5319 23.2337 24.0913 22.9235C25.6508 22.6133 27.0832 21.8477 28.2074 20.7234C29.3317 19.5992 30.0974 18.1667 30.4075 16.6073C30.7177 15.0479 30.5585 13.4315 29.9501 11.9626C29.3416 10.4937 28.3112 9.23815 26.9892 8.35482ZM20.037 15.838L18.611 14.448C18.5129 14.3524 18.4436 14.2311 18.411 14.098C18.3785 13.9649 18.384 13.8253 18.4269 13.6952C18.4699 13.5651 18.5486 13.4497 18.6539 13.3621C18.7593 13.2746 18.8872 13.2184 19.023 13.2L20.993 12.914L21.874 11.129C21.9345 11.007 22.0278 10.9042 22.1436 10.8324C22.2593 10.7606 22.3928 10.7226 22.529 10.7226C22.6652 10.7226 22.7987 10.7606 22.9144 10.8324C23.0302 10.9042 23.1235 11.007 23.184 11.129L24.065 12.914L26.035 13.2C26.1696 13.2204 26.2958 13.2779 26.3995 13.3662C26.5031 13.4544 26.5801 13.5699 26.6216 13.6995C26.6632 13.8291 26.6678 13.9678 26.6348 14.0998C26.6018 14.2319 26.5326 14.3521 26.435 14.447L25.01 15.837L25.347 17.8C25.3699 17.9346 25.3548 18.0728 25.3033 18.1992C25.2517 18.3256 25.1659 18.4351 25.0555 18.5153C24.945 18.5955 24.8143 18.6432 24.6782 18.6531C24.542 18.6629 24.4058 18.6345 24.285 18.571L22.523 17.645L20.761 18.571C20.6403 18.6341 20.5043 18.6623 20.3685 18.6523C20.2326 18.6424 20.1022 18.5947 19.9919 18.5147C19.8817 18.4347 19.7959 18.3255 19.7444 18.1994C19.6928 18.0733 19.6774 17.9353 19.7 17.801L20.037 15.838ZM14.688 20.403L12.116 25.919C12.0571 26.0497 12.0379 26.1948 12.0607 26.3364C12.0836 26.4779 12.1475 26.6096 12.2445 26.7151C12.3415 26.8207 12.4674 26.8954 12.6065 26.9301C12.7456 26.9647 12.8918 26.9577 13.027 26.91L16.059 25.81L16.286 25.916L17.386 28.948C17.4355 29.0838 17.5241 29.2018 17.6407 29.2872C17.7572 29.3726 17.8965 29.4215 18.0408 29.4278C18.1852 29.4341 18.3281 29.3975 18.4517 29.3226C18.5752 29.2477 18.6738 29.1379 18.735 29.007L20.888 24.39C19.6412 24.1715 18.4507 23.7063 17.386 23.0217C16.3214 22.337 15.4041 21.4467 14.688 20.403ZM30.357 20.403L32.931 25.919C32.9928 26.0502 33.0142 26.1967 32.9926 26.3401C32.971 26.4834 32.9073 26.6171 32.8096 26.7242C32.712 26.8313 32.5847 26.907 32.4439 26.9417C32.3032 26.9764 32.1553 26.9685 32.019 26.919L28.987 25.819L28.76 25.925L27.66 28.957C27.6105 29.0927 27.5219 29.2108 27.4053 29.2962C27.2888 29.3816 27.1495 29.4305 27.0052 29.4368C26.8608 29.4431 26.7179 29.4065 26.5943 29.3316C26.4708 29.2567 26.3722 29.1469 26.311 29.016L24.158 24.399C25.4053 24.1793 26.5961 23.7126 27.6607 23.0264C28.7252 22.3402 29.6419 21.4483 30.357 20.403Z" />
     </symbol>  
       <symbol id="price" viewBox="0 0 1000 1000">
    <path d="M29.5 479L479.25 29.25C497.5 11.25 522.5 0 550 0h350c55.252 0 100 44.75 100 100v350c0 27.75-11.25 52.75-29.5 70.75l-450 450c-18 18-43 29.25-70.5 29.25a100.19 100.19 0 0 1-70.751-29.25l-349.998-350C11.25 602.5 0 577.502 0 550c0-27.75 11.25-52.75 29.5-71zM825 250c41.5 0 75-33.5 75-75s-33.5-75-75-75-75 33.5-75 75 33.502 75 75 75z"/>
     </symbol>  
    <symbol id="values" viewBox="0 0 60.341 46.333">
        <path d="M60.06 12.8L48.356.673a.94.94 0 0 0-1.363 0l-5.85 6.06c-.376.395-.376 1.017 0 1.412l.584.6-1.342 1.397c-.874.902-2.226 1.148-3.362.612-2.373-1.117-5.142-1-7.422.286a6.28 6.28 0 0 0-3.772.208c-1.103.435-2.36.162-3.182-.692l-2.41-2.495.287-.3c.376-.395.376-1.017 0-1.412L14.673.29a.94.94 0 0 0-1.363 0L.282 13.785c-.376.395-.376 1.017 0 1.412l5.85 6.06a.94.94 0 0 0 1.363 0l.35-.36 1.7 1.76a3.09 3.09 0 0 1 .822 1.6c.548 3.103 2.007 5.973 4.192 8.243l.32.33c-1.294 1.43-1.267 3.615.063 5.012a3.4 3.4 0 0 0 2.453 1.051h.173c-.053 1.007.313 1.99 1 2.72.64.672 1.526 1.052 2.453 1.052h.077a3.65 3.65 0 0 0 1.012 2.619c.64.672 1.525 1.052 2.452 1.052s1.814-.38 2.453-1.052l.158-.176c1.18.426 2.498.112 3.358-.8a3.36 3.36 0 0 0 .732-1.163l.1.1c.597.627 1.425.98 2.29.98s1.693-.355 2.3-.98a3.36 3.36 0 0 0 .748-1.206c1.283.97 3.09.824 4.2-.342a3.4 3.4 0 0 0 .949-2.374 3.5 3.5 0 0 0-.091-.794 3.18 3.18 0 0 0 1.639-.916c1.118-1.176 1.264-2.973.35-4.315l.773-.8c2.2-2.296 3.677-5.204 4.2-8.346a2.73 2.73 0 0 1 .736-1.429l2.875-2.978.505.524a.94.94 0 0 0 1.363 0l5.85-6.06c.377-.395.377-1.017 0-1.412zM6.815 19.14l-4.488-4.65L13.99 2.4l4.49 4.65zm11.67 17.293c-.284.298-.678.466-1.09.466s-.805-.17-1.1-.466c-.602-.632-.602-1.626 0-2.258.284-.298.678-.467 1.1-.467s.805.17 1.09.467a1.64 1.64 0 0 1 0 2.258zM22.12 40.2a1.5 1.5 0 0 1-2.179 0 1.64 1.64 0 0 1 0-2.258c.284-.298.678-.467 1.1-.467s.805.17 1.1.467a1.64 1.64 0 0 1-.001 2.258zm3.542 3.67a1.5 1.5 0 0 1-2.179 0 1.64 1.64 0 0 1 0-2.258c.284-.298.678-.467 1.1-.467s.805.17 1.1.467a1.64 1.64 0 0 1 0 2.262zm16.368-7.663a1.28 1.28 0 0 1-1.855 0l-9.35-9.682a.94.94 0 0 0-1.363 0c-.376.395-.376 1.017 0 1.412l10.07 10.43a1.4 1.4 0 0 1 0 1.923c-.242.254-.578.398-.93.398s-.686-.144-.93-.398l-9.547-9.887a.94.94 0 0 0-1.363 0c-.377.395-.377 1.017 0 1.412l7.835 8.115c.5.54.495 1.376-.013 1.91a1.28 1.28 0 0 1-1.855 0l-8.5-8.8a.94.94 0 0 0-1.363 0c-.376.395-.376 1.017 0 1.412l6.305 6.53a1.39 1.39 0 0 1 0 1.921 1.28 1.28 0 0 1-.928.4c-.083-.001-.166-.01-.248-.027a3.67 3.67 0 0 0-.976-3.072c-.64-.672-1.526-1.052-2.453-1.052h-.077a3.65 3.65 0 0 0-1.012-2.619c-.638-.673-1.524-1.055-2.452-1.057q-.087 0-.173 0c.052-1.006-.313-2-1-2.718a3.39 3.39 0 0 0-3.234-.958l-.69-.716a13.85 13.85 0 0 1-3.66-7.2 5.1 5.1 0 0 0-1.353-2.649l-1.7-1.76 9.665-10 2.41 2.495c.91.942 2.166 1.474 3.477 1.472a4.9 4.9 0 0 0 1.726-.315 4.41 4.41 0 0 1 .842-.224l-5.967 6.18c-1.5 1.585-1.5 4.077 0 5.662.713.747 1.7 1.17 2.733 1.17s2.02-.423 2.733-1.17l3-3.1.81.84.034.035.032.034.027.028 11.3 11.7c.512.54.512 1.384 0 1.923zm6.07-14.89a4.74 4.74 0 0 0-1.27 2.488 13.85 13.85 0 0 1-3.676 7.288l-.74.767-6.1-6.315.4.017a4.77 4.77 0 0 0 1.878-.379 1.01 1.01 0 0 0 .527-1.3.95.95 0 0 0-1.257-.546c-2.48 1.05-5.454-1.846-5.785-2.18l-.017-.016-.034-.035-.025-.03-.81-.84.92-.953c.376-.395.376-1.017 0-1.412a.94.94 0 0 0-1.363 0l-5.282 5.466c-.357.375-.852.587-1.37.587s-1.013-.212-1.37-.587a2.06 2.06 0 0 1 0-2.838l6.347-6.574a6.46 6.46 0 0 1 1.167-.957 6.2 6.2 0 0 1 5.987-.391c1.87.878 4.09.468 5.522-1.018l1.342-1.39 7.888 8.17zm5.425-3.16l-10.34-10.7 4.49-4.65 10.34 10.7z"/><g fill="#f3f3f3"><ellipse cx="54.497" cy="14.268" rx=".964" ry=".998"/><ellipse cx="6.314" cy="15.254" rx=".964" ry=".998"/></g>
    </symbol>
    <symbol id="vision" viewBox="0 0 88.624 88.268">
        <path d="M38.478 88.15l-14.955-15.47L55.08 33.623 14.977 63.838.02 48.366l69.39-28.595z"/>
    </symbol>
    <symbol id="whatsapp" viewBox="0 0 512 512">
        <path d="M0 512l35.3-128C12.36 344.276 0 300.138 0 254.234 0 114.76 114.76 0 255.117 0S512 114.76 512 254.234 395.476 512 255.117 512c-44.138 0-86.5-14.124-124.47-35.3L0 512z" fill="#EDEDED"/><path d="M137.7 430.786l7.945 4.414c32.662 20.303 70.62 32.662 110.345 32.662 115.64 0 211.862-96.22 211.862-213.628S371.64 44.138 255.117 44.138 44.138 137.7 44.138 254.234c0 40.607 11.476 80.33 32.662 113.876l5.297 7.945-20.303 74.152 75.916-19.42z" fill="#55CD6C"/><path d="M187.145 135.945l-16.772-.883c-5.297 0-10.593 1.766-14.124 5.297-7.945 7.062-21.186 20.303-24.717 37.96-6.18 26.483 3.53 58.262 26.483 90.04s67.1 82.98 144.772 105.048c24.717 7.062 44.138 2.648 60.028-7.062 12.36-7.945 20.303-20.303 22.952-33.545l2.648-12.36c.883-3.53-.883-7.945-4.414-9.7l-55.614-25.6c-3.53-1.766-7.945-.883-10.593 2.648l-22.07 28.248c-1.766 1.766-4.414 2.648-7.062 1.766-15.007-5.297-65.324-26.483-92.7-79.448-.883-2.648-.883-5.297.883-7.062l21.186-23.834c1.766-2.648 2.648-6.18 1.766-8.828l-25.6-57.38c-.884-2.65-3.532-5.297-7.063-5.297" fill="#FEFEFE"/>
    </symbol>
    <symbol id="close" viewBox="0 0 47.971 47.971">
        <path d="M28.228 23.986L47.092 5.122a3 3 0 0 0 0-4.242 3 3 0 0 0-4.242 0L23.986 19.744 5.12.88a3 3 0 0 0-4.242 0 3 3 0 0 0 0 4.242l18.865 18.864L.88 42.85a3 3 0 0 0 0 4.242c.586.585 1.354.878 2.12.878a2.99 2.99 0 0 0 2.121-.879l18.865-18.864L42.85 47.09a2.99 2.99 0 0 0 4.242 0 3 3 0 0 0 0-4.242L28.228 23.986z"/>
     </symbol>  
     <symbol id="back" viewBox="0 0 480.001 480.001" >
        <path d="M178.5 140.25v-102L0 216.75l178.5 178.5V290.7c127.5 0 216.75 40.8 280.5 130.05-25.5-127.5-102-255-280.5-280.5z"/>
      </symbol> 
    <symbol id="day"  viewBox="0 0 480.001 480.001">
        <path d="M440 32h-16V8a8 8 0 1 0-16 0v24h-64V8a8 8 0 1 0-16 0v24h-64V8a8 8 0 0 0-16 0v24h-64V8a8 8 0 1 0-16 0v24h-64V8a8 8 0 1 0-16 0v24H72c-22.08.026-39.974 17.92-40 40v195.63c-43.437 49.083-42.554 123.1 2.04 171.144a90.44 90.44 0 0 0 7.056 7.064l.072.072h.048c48.02 44.617 122.057 45.52 171.152 2.088H440c22.08-.026 39.974-17.92 40-40v-336c-.027-22.08-17.92-39.973-40-40zM204.46 434.157c-43.063 39.84-109.545 39.797-152.556-.1a78.75 78.75 0 0 1-6.056-6.064c-42.096-45.5-39.336-116.514 6.165-158.6s116.515-39.337 158.612 6.165 39.337 116.514-6.165 158.6zM464 408c0 13.255-10.745 24-24 24H227.84c.976-1.208 1.832-2.496 2.752-3.736l2.52-3.424c1.784-2.568 3.448-5.216 5.032-7.912.464-.8.984-1.528 1.424-2.32a125.27 125.27 0 0 0 5.4-10.792c.416-.936.752-1.904 1.144-2.848 1.16-2.784 2.248-5.6 3.2-8.456.456-1.344.848-2.704 1.248-4.064.8-2.568 1.464-5.16 2.064-7.776l.936-4.304c.528-2.736.952-5.504 1.304-8.288l.496-3.84c.392-4.056.64-8.136.64-12.24-.084-70.658-57.342-127.916-128-128-4.104 0-8.184.248-12.24.64-1.288.128-2.56.336-3.848.496a159.1 159.1 0 0 0-8.28 1.304c-1.448.288-2.88.608-4.312.936-2.608.603-5.187 1.288-7.736 2.056l-4.112 1.256a125.84 125.84 0 0 0-8.304 3.144l-3.016 1.208c-3.648 1.6-7.2 3.4-10.704 5.36-.888.496-1.728 1.072-2.608 1.6-2.584 1.536-5.128 3.128-7.608 4.8-1.224.848-2.4 1.76-3.6 2.648S49.177 251.2 48 252.17V128h416v280zm0-296H48V72c0-13.255 10.745-24 24-24h16v24a8 8 0 1 0 16 0V48h64v24a8 8 0 1 0 16 0V48h64v24a8 8 0 1 0 16 0V48h64v24a8 8 0 1 0 16 0V48h64v24a8 8 0 1 0 16 0V48h16c13.255 0 24 10.745 24 24v40zM128 264a8 8 0 0 0-8 8v72H80a8 8 0 1 0 0 16h48a8 8 0 0 0 8-8v-80a8 8 0 0 0-8-8z"/>
     </symbol>  
    <symbol id="gallery"  viewBox="0 0 45.964 45.964" >
        <path d="M7.07 30.834V11.062H4.04c-2.237 0-4.04 1.83-4.04 4.068v26.732a4.04 4.04 0 0 0 4.042 4.051h26.733c2.238 0 4.076-1.8 4.076-4.05v-2.92H15.18c-4.446.001-8.108-3.66-8.108-8.108zM41.913.05H15.18c-2.238 0-4.066 1.813-4.066 4.05v26.733A4.08 4.08 0 0 0 15.18 34.9h26.734c2.237 0 4.05-1.826 4.05-4.067V4.102A4.05 4.05 0 0 0 41.913.05zm-.55 28.54a1.26 1.26 0 0 1-1.12.656H17.336c-.403 0-.782-.18-1.022-.502s-.313-.736-.197-1.123l3.277-10.84a1.95 1.95 0 0 1 1.554-1.36c.736-.12 1.476.2 1.908.797l4.582 6.437a1.95 1.95 0 0 0 2.689.484l4.22-2.865a1.95 1.95 0 0 1 2.733.549l4.23 6.472a1.26 1.26 0 0 1 .055 1.295z"/>
     </symbol>   
    <symbol id="prev-arrow"  viewBox="0 0 16.023 26.044" >
        <path   data-name="Path 786" d="M-1094.667,10901.333l-10.023,10.022,10.023,10.022" transform="translate(1107.689 -10898.333)"   stroke="#03050a" stroke-linecap="round" stroke-linejoin="round" stroke-width="6"/>
    </symbol>   
    <symbol id="move-to-next"  viewBox="0 0 46.02 46.02" >
        <path d="M14.757 46.02a5.69 5.69 0 0 1-3.929-1.569c-2.282-2.17-2.373-5.78-.204-8.063L23.382 22.97 10.637 9.645C8.46 7.37 8.54 3.76 10.816 1.582s5.886-2.097 8.063.18l16.505 17.253a5.71 5.71 0 0 1 .013 7.872l-16.504 17.36a5.7 5.7 0 0 1-4.136 1.773z"/>
     </symbol>   
    <symbol id="file"  viewBox="0 0 957.599 957.6" >
        <path d="M817.9 108.4h-28v687.9c0 45.7-37.2 82.898-82.9 82.898H197.7v25.5c0 29.2 23.7 52.9 52.9 52.9h567.2c29.2 0 52.9-23.7 52.9-52.9V161.3c.001-29.2-23.6-52.9-52.8-52.9zM423.3 849.2h283.6c29.2 0 52.9-23.7 52.9-52.898V52.9c0-29.2-23.7-52.9-52.9-52.9H329v17.5c.2 1.8.3 3.7.3 5.6V168c0 41.1-33.4 74.5-74.5 74.5H109.9c-1.5 0-3.1-.1-4.6-.2H86.9v554c0 29.2 23.7 52.898 52.9 52.898h283.5zM434 669.4H249.1c-13.8 0-25-11.2-25-25s11.2-25 25-25h185c13.8 0 25 11.2 25 25s-11.3 25-25.1 25zm185-127.6H249.1c-13.8 0-25-11.2-25-25s11.2-25 25-25H619c13.8 0 25 11.2 25 25s-11.2 25-25 25zM249.1 356.3H619c13.8 0 25 11.2 25 25s-11.2 25-25 25H249.1c-13.8 0-25-11.2-25-25s11.2-25 25-25zM109.9 212.5h145.3c24.2-.2 43.8-19.8 44-44V23.1c0-13.4-11-22.3-22.4-22.3-5.5 0-11 2-15.6 6.6L94.1 174.5c-14 14-4.1 38 15.8 38z"/>
    </symbol>   
    <symbol id="figure-circle"  viewBox="0 0 1366 50" >
        <path   d="M0,0S338.833,50,680.333,50,1366,0,1366,0V50H0Z" fill="#fff"/>
    </symbol>  
     <symbol id="book" viewBox="0 0 60 60">
        <path d="M13 0c-1.547 0-3.033.662-4.078 1.817A5.52 5.52 0 0 0 7.525 6H7.5v48.958A5.05 5.05 0 0 0 12.542 60H52.5V0H13zM9.5 54.958V9.998c.836.63 1.875 1.002 3 1.002v46.996c-1.658-.023-3-1.375-3-3.038zM50.5 58h-36V11h3v25.2c0 .682.44 1.262 1.1 1.444a1.56 1.56 0 0 0 .408.056c.015 0 .03-.005.044-.006.045-.001.088-.012.133-.017a1.44 1.44 0 0 0 .299-.066c.048-.016.093-.035.138-.056a1.44 1.44 0 0 0 .263-.159l.106-.08c.11-.1.212-.21.292-.346l4.217-7.028 4.217 7.03a1.47 1.47 0 0 0 1.55.687c.045-.008.09-.002.134-.014.657-.183 1.1-.763 1.1-1.444V11h19v47zM29.64 9.483l-.003.007-.137.274v.042l-.1.23.1.152V34.4l-5-8.333-5 8.333V10.236L21.118 7h9.764L29.64 9.483zM32.118 9l2-4H19.882l-2 4h-4.67C11.318 9 9.696 7.62 9.52 5.86a3.46 3.46 0 0 1 .887-2.701C11.07 2.422 12.017 2 13 2h37.5v1h-5a1 1 0 1 0 0 2h5v1h-4a1 1 0 1 0 0 2h4v1H32.118z"/>
     </symbol> 
    <symbol id="diplomado" viewBox="0 0 512 512">
        <path d="M366.555 137.336a8.42 8.42 0 0 0-11.167-4.115 8.42 8.42 0 0 0-4.115 11.168c6.37 13.8 9.6 28.568 9.6 43.897 0 57.827-47.045 104.872-104.87 104.872S151.13 246.113 151.13 188.286 198.174 83.414 256 83.414c29.573 0 57.924 12.585 77.78 34.528a8.42 8.42 0 0 0 11.888.594 8.42 8.42 0 0 0 .592-11.888C323.22 81.186 290.32 66.583 256 66.583c-67.108 0-121.704 54.596-121.704 121.704S188.893 310 256 310s121.703-54.596 121.703-121.704c-.001-17.782-3.752-34.925-11.15-50.95zm57.528 50.95c0-6.442 2.82-13.903 5.806-21.802 4.508-11.925 9.17-24.257 5.228-36.393-4.106-12.644-15.903-20.33-26.3-27.112-6.836-4.454-13.294-8.66-16.812-13.495-3.593-4.937-5.636-12.456-7.8-20.416-3.235-11.905-6.902-25.398-17.505-33.114-10.496-7.638-23.794-7-36.652-6.405-8.306.392-16.15.762-22.08-1.164-5.52-1.792-11.42-6.562-17.667-11.612C280.56 8.913 269.533 0 256 0s-24.56 8.913-34.3 16.777c-6.247 5.05-12.148 9.82-17.665 11.6-5.93 1.926-13.776 1.555-22.082 1.164-12.858-.607-26.157-1.234-36.653 6.405-10.603 7.716-14.27 21.2-17.505 33.114-2.163 7.96-4.207 15.48-7.8 20.416-3.518 4.834-9.976 9.04-16.812 13.495-10.4 6.78-22.206 14.467-26.3 27.1-3.94 12.136.72 24.468 5.228 36.394 2.985 7.9 5.805 15.36 5.805 21.802s-2.82 13.903-5.806 21.802c-4.508 11.926-9.17 24.258-5.228 36.394 4.106 12.643 15.903 20.33 26.3 27.1 6.836 4.454 13.294 8.66 16.812 13.495 3.593 4.937 5.636 12.457 7.8 20.416 3.235 11.905 6.902 25.398 17.505 33.114 10.495 7.638 23.793 7 36.652 6.405 8.305-.393 16.15-.762 22.08 1.164 5.52 1.792 11.42 6.562 17.668 11.612 4.7 3.8 9.7 7.836 15.153 11.002L204.6 486.54l-29.778-33.184a8.42 8.42 0 0 0-8.717-2.431l-42.635 12.992 26.73-95.86a8.42 8.42 0 0 0-5.846-10.367 8.42 8.42 0 0 0-10.367 5.846L103.132 474.18c-.825 2.96.028 6.135 2.227 8.282a8.42 8.42 0 0 0 8.333 2.03l52.184-15.902 36.443 40.613c1.616 1.8 3.904 2.796 6.264 2.795.637 0 1.28-.072 1.917-.22a8.42 8.42 0 0 0 6.191-5.935l36.088-129.46a30.78 30.78 0 0 0 3.219.187c1.088 0 2.156-.077 3.213-.187l36.103 129.46a8.42 8.42 0 0 0 6.191 5.935 8.44 8.44 0 0 0 1.915.22 8.42 8.42 0 0 0 6.265-2.796l36.43-40.613 52.195 15.9a8.42 8.42 0 0 0 10.559-10.31l-38.214-137.05c7.617-7.905 10.742-19.355 13.534-29.63 2.163-7.96 4.207-15.48 7.8-20.416 3.518-4.834 9.976-9.04 16.812-13.495 10.4-6.78 22.206-14.467 26.3-27.1 3.94-12.136-.72-24.468-5.228-36.394-2.983-7.897-5.802-15.357-5.802-21.8zm-35.545 275.632L345.9 450.926c-3.13-.956-6.532-.006-8.718 2.43l-29.766 33.183L275.13 370.8c5.446-3.167 10.456-7.204 15.16-11.006 6.247-5.05 12.148-9.818 17.667-11.612 5.932-1.926 13.777-1.555 22.082-1.164 8.648.408 17.5.814 25.55-1.28l32.952 118.18zm30.57-222.633c-2.268 6.985-10.633 12.435-19.5 18.205-7.812 5.1-15.9 10.353-21.233 17.694-5.415 7.44-7.967 16.828-10.433 25.906-2.75 10.124-5.35 19.685-11.166 23.92-5.712 4.155-15.544 3.692-25.956 3.2-9.448-.444-19.22-.907-28.073 1.968-8.48 2.754-15.886 8.74-23.05 14.53-8.294 6.704-16.126 13.034-23.707 13.034s-15.415-6.332-23.708-13.036c-7.162-5.8-14.57-11.777-23.05-14.53-5.584-1.813-11.533-2.3-17.535-2.3-3.514 0-7.048.166-10.537.33-10.4.492-20.243.955-25.955-3.2-5.816-4.233-8.415-13.795-11.166-23.92-2.466-9.078-5.018-18.466-10.433-25.906-5.34-7.34-13.42-12.603-21.233-17.694-8.857-5.77-17.222-11.22-19.5-18.206-2.115-6.514 1.324-15.612 4.964-25.243 3.4-8.966 6.893-18.236 6.893-27.752s-3.504-18.788-6.892-27.752c-3.64-9.63-7.08-18.73-4.964-25.244 2.268-6.985 10.633-12.435 19.5-18.205 7.812-5.1 15.9-10.353 21.233-17.692 5.415-7.44 7.967-16.828 10.433-25.906 2.75-10.124 5.35-19.685 11.166-23.92 5.7-4.156 15.546-3.693 25.956-3.2 9.447.445 19.22.907 28.073-1.968 8.48-2.754 15.886-8.74 23.05-14.53 8.292-6.706 16.126-13.038 23.706-13.038s15.415 6.332 23.707 13.034c7.162 5.8 14.57 11.777 23.05 14.53 8.854 2.875 18.623 2.415 28.072 1.968 10.4-.5 20.244-.954 25.955 3.2 5.816 4.233 8.415 13.795 11.166 23.92 2.466 9.078 5.018 18.466 10.433 25.906 5.34 7.34 13.42 12.603 21.232 17.692 8.857 5.77 17.222 11.22 19.5 18.206 2.115 6.515-1.323 15.612-4.964 25.244-3.4 8.965-6.893 18.236-6.893 27.752s3.506 18.786 6.895 27.752c3.64 9.632 7.08 18.73 4.963 25.247z"/><use xlink:href="#B"/><use xlink:href="#B" y="87.85"/><path d="M311.8 179.87h-25.35a8.42 8.42 0 0 0-8.416 8.416 8.42 8.42 0 0 0 8.416 8.416h25.35a8.42 8.42 0 0 0 8.416-8.416 8.42 8.42 0 0 0-8.416-8.416zm-51.706 0H200.2a8.42 8.42 0 0 0-8.416 8.416 8.42 8.42 0 0 0 8.416 8.416h59.914a8.42 8.42 0 0 0 8.416-8.416 8.42 8.42 0 0 0-8.416-8.416z"/><defs ><path id="B" d="M288.506 135.945h-65a8.42 8.42 0 0 0-8.416 8.416 8.42 8.42 0 0 0 8.416 8.416h65a8.42 8.42 0 0 0 8.416-8.416 8.42 8.42 0 0 0-8.416-8.416z"/></defs>
    </symbol> 
    <symbol id="clock" viewBox="0 0 384 384">
      <path d="M343.594 101.04c-7.953 3.848-11.28 13.418-7.434 21.367C346.672 144.12 352 167.527 352 192c0 88.223-71.777 160-160 160S32 280.223 32 192 103.777 32 192 32c36.56 0 70.902 11.938 99.328 34.52 6.895 5.504 16.977 4.352 22.48-2.566s4.352-16.984-2.57-22.48C277.586 14.727 235.238 0 192 0 86.137 0 0 86.137 0 192s86.137 192 192 192 192-86.137 192-192c0-29.336-6.406-57.45-19.04-83.527-3.84-7.97-13.44-11.3-21.367-7.434zM192 64a16.01 16.01 0 0 0-16 16v112a16.01 16.01 0 0 0 16 16h80a16.01 16.01 0 0 0 16-16 16.01 16.01 0 0 0-16-16h-64V80a16.01 16.01 0 0 0-16-16zm0 0"/>    
    </symbol>  
    <symbol id="day" viewBox="-6 0 512 512">
       <path d="M227.656 357.508a15.13 15.13 0 0 0 10.691 4.426 15.11 15.11 0 0 0 10.688-4.426l53.973-53.973a15.12 15.12 0 0 0 0-21.383c-5.902-5.902-15.477-5.902-21.38 0l-43.28 43.28-19.734-19.734a15.13 15.13 0 0 0-21.383 0c-5.906 5.902-5.902 15.477 0 21.383zm22.464 82.336c66.176 0 120.012-53.84 120.012-120.016S316.297 199.816 250.12 199.816s-120.016 53.836-120.016 120.012 53.84 120.016 120.016 120.016zm0-209.793c49.504 0 89.777 40.273 89.777 89.777s-40.273 89.78-89.777 89.78-89.78-40.277-89.78-89.78 40.277-89.777 89.78-89.777zM451.344 32.2H423.77V15.117C423.77 6.77 417 0 408.652 0s-15.117 6.77-15.117 15.117V32.2h-29.707V15.117C363.828 6.77 357.06 0 348.707 0A15.11 15.11 0 0 0 333.6 15.117V32.2H166.652V15.117C166.652 6.77 159.883 0 151.53 0a15.12 15.12 0 0 0-15.117 15.117V32.2h-29.707V15.117A15.12 15.12 0 0 0 91.586 0 15.12 15.12 0 0 0 76.47 15.117V32.2H48.9C21.934 32.2 0 54.125 0 81.086V463.1C0 490.066 21.934 512 48.9 512h402.453c26.96 0 48.9-21.934 48.9-48.9V81.086c0-26.96-21.934-48.895-48.9-48.895zm18.652 430.918c0 10.285-8.367 18.656-18.652 18.656H48.9c-10.285 0-18.656-8.37-18.656-18.656v-305.2h439.762zM30.234 81.086A18.68 18.68 0 0 1 48.89 62.43h27.58v17.074c0 8.348 6.77 15.117 15.12 15.117a15.12 15.12 0 0 0 15.117-15.117V62.43h29.707v17.074c0 8.348 6.77 15.117 15.12 15.117a15.12 15.12 0 0 0 15.117-15.117V62.43H333.6v17.074c0 8.348 6.77 15.117 15.12 15.117a15.12 15.12 0 0 0 15.117-15.117V62.43h29.707v17.074c0 8.348 6.77 15.117 15.117 15.117s15.12-6.77 15.12-15.117V62.43h27.57c10.28 0 18.65 8.367 18.65 18.656v46.574H30.234zm0 0"/>
    </symbol>  
    <symbol id="email" viewBox="0 0 80.2 73.1">
    <path d="M21.6,0h37.7c3.3,0,6,2.7,6,6v30c0,3.3-2.7,6-6,6H21.6c-3.3,0-6-2.7-6-6V6C15.6,2.7,18.3,0,21.6,0z" fill="#2a355b"/><path d="M14.5,3.2h51.4c3.3,0,6,2.7,6,6v40.7c0,3.3-2.7,6-6,6H14.5c-3.3,0-6-2.7-6-6V9.2C8.5,5.9,11.1,3.2,14.5,3.2z" fill="#313d6a"/><path d="M6,8.1h68.2c3.3,0,6,2.7,6,6v53c0,3.3-2.7,6-6,6H6c-3.3,0-6-2.7-6-6v-53C0,10.8,2.7,8.1,6,8.1z" fill="#344273"/><path d="M11.8 13.3h57.5a6.02 6.02 0 0 1 6 6v7.5H5.8v-7.5a6.02 6.02 0 0 1 6-6z" fill="#f1f1f1"/><path d="M11 21.3h59c.5 0 1 .4 1 .9v.1c0 .5-.4 1-.9 1H11c-.5 0-1-.4-1-.9v-.1c0-.5.4-1 1-1zm.5-4h25a1.54 1.54 0 0 1 1.5 1.5h0a1.54 1.54 0 0 1-1.5 1.5h-25a1.54 1.54 0 0 1-1.5-1.5h0a1.54 1.54 0 0 1 1.5-1.5z" fill="#e2e2e2"/>
     </symbol>  
    

</svg>